<svg xmlns="http://www.w3.org/2000/svg" width="900" height="940" viewBox="0 0 900 940" font-family="Segoe UI, Helvetica, Arial, sans-serif">
  <defs><marker id="a" viewBox="0 0 10 10" refX="5" refY="5" markerWidth="7" markerHeight="7" orient="auto"><path d="M0 0 L10 5 L0 10 z" fill="#64748b"/></marker><marker id="r" viewBox="0 0 10 10" refX="5" refY="5" markerWidth="7" markerHeight="7" orient="auto"><path d="M0 0 L10 5 L0 10 z" fill="#dc2626"/></marker></defs>
  <rect x="2" y="2" width="896" height="936" rx="18" fill="#ffffff" stroke="#2563eb" stroke-width="3"/>
  <text x="450" y="50" font-size="30" font-weight="800" text-anchor="middle"><tspan fill="#2563eb">GitHub Actions</tspan><tspan fill="#0f172a"> Cheat Sheet</tspan></text>
  <text x="450" y="80" font-size="17" font-weight="700" fill="#64748b" text-anchor="middle">Part 1 — Basics</text>
  <rect x="30" y="104" width="410" height="244" rx="14" fill="#eff6ff" stroke="#2563eb" stroke-width="2"/>
  <path d="M30 144 V118 Q30 104 44 104 H426 Q440 104 440 118 V144 Z" fill="#2563eb"/>
  <circle cx="52" cy="124" r="12" fill="#ffffff"/>
  <text x="52" y="129" font-size="14" font-weight="800" fill="#2563eb" text-anchor="middle">1</text>
  <text x="72" y="131" font-size="18" font-weight="800" fill="#fff" text-anchor="start">What is GitHub Actions?</text>
  <text x="235" y="176" font-size="16" font-weight="700" fill="#1e3a8a" text-anchor="middle">A CI/CD and automation platform</text>
  <text x="235" y="198" font-size="16" font-weight="700" fill="#1e3a8a" text-anchor="middle">built into GitHub.</text>
  <rect x="48" y="220" width="112" height="48" rx="10" fill="#ffffff" stroke="#ea580c" stroke-width="1.5"/>
  <text x="104.0" y="241.0" font-size="15" font-weight="700" fill="#7c2d12" text-anchor="middle">Event</text>
  <text x="104.0" y="258.0" font-size="11" font-weight="400" fill="#7c2d12" text-anchor="middle">push, PR…</text>
  <path d="M162 244 L177 244" fill="none" stroke="#64748b" stroke-width="2" marker-end="url(#a)"/>
  <rect x="181" y="220" width="112" height="48" rx="10" fill="#ffffff" stroke="#7c3aed" stroke-width="1.5"/>
  <text x="237.0" y="241.0" font-size="15" font-weight="700" fill="#4c1d95" text-anchor="middle">Workflow</text>
  <text x="237.0" y="258.0" font-size="11" font-weight="400" fill="#4c1d95" text-anchor="middle">auto-triggers</text>
  <path d="M295 244 L310 244" fill="none" stroke="#64748b" stroke-width="2" marker-end="url(#a)"/>
  <rect x="314" y="220" width="112" height="48" rx="10" fill="#ffffff" stroke="#16a34a" stroke-width="1.5"/>
  <text x="370.0" y="241.0" font-size="15" font-weight="700" fill="#14532d" text-anchor="middle">Jobs run</text>
  <text x="370.0" y="258.0" font-size="11" font-weight="400" fill="#14532d" text-anchor="middle">build, test…</text>
  <text x="235" y="300" font-size="14" font-weight="400" fill="#1e3a8a" text-anchor="middle">Any event in the repo triggers the</text>
  <text x="235" y="320" font-size="14" font-weight="400" fill="#1e3a8a" text-anchor="middle">workflow automatically — no manual start.</text>
  <rect x="460" y="104" width="410" height="244" rx="14" fill="#fef2f2" stroke="#dc2626" stroke-width="2"/>
  <path d="M460 144 V118 Q460 104 474 104 H856 Q870 104 870 118 V144 Z" fill="#dc2626"/>
  <circle cx="482" cy="124" r="12" fill="#ffffff"/>
  <text x="482" y="129" font-size="14" font-weight="800" fill="#dc2626" text-anchor="middle">2</text>
  <text x="502" y="131" font-size="18" font-weight="800" fill="#fff" text-anchor="start">GitHub Actions vs Jenkins</text>
  <rect x="476" y="158" width="184" height="30" rx="10" fill="#2563eb" stroke="#2563eb" stroke-width="1.5"/>
  <text x="568.0" y="177.9" font-size="14" font-weight="700" fill="#fff" text-anchor="middle">GitHub Actions</text>
  <text x="484" y="216" font-size="14" font-weight="600" fill="#1e3a8a" text-anchor="start">✔  Built into GitHub</text>
  <text x="484" y="246" font-size="14" font-weight="600" fill="#1e3a8a" text-anchor="start">✔  YAML in the repo</text>
  <text x="484" y="276" font-size="14" font-weight="600" fill="#1e3a8a" text-anchor="start">✔  Hosted runners</text>
  <text x="484" y="306" font-size="14" font-weight="600" fill="#1e3a8a" text-anchor="start">✔  Low maintenance</text>
  <rect x="670" y="158" width="184" height="30" rx="10" fill="#dc2626" stroke="#dc2626" stroke-width="1.5"/>
  <text x="762.0" y="177.9" font-size="14" font-weight="700" fill="#fff" text-anchor="middle">Jenkins</text>
  <text x="678" y="216" font-size="14" font-weight="600" fill="#7f1d1d" text-anchor="start">⚙  Your own server</text>
  <text x="678" y="246" font-size="14" font-weight="600" fill="#7f1d1d" text-anchor="start">⚙  Groovy Jenkinsfile</text>
  <text x="678" y="276" font-size="14" font-weight="600" fill="#7f1d1d" text-anchor="start">⚙  You add agents</text>
  <text x="678" y="306" font-size="14" font-weight="600" fill="#7f1d1d" text-anchor="start">⚙  High maintenance</text>
  <line x1="665" y1="196" x2="665" y2="332" stroke="#fecaca" stroke-width="2"/>
  <rect x="30" y="362" width="410" height="244" rx="14" fill="#faf5ff" stroke="#7c3aed" stroke-width="2"/>
  <path d="M30 402 V376 Q30 362 44 362 H426 Q440 362 440 376 V402 Z" fill="#7c3aed"/>
  <circle cx="52" cy="382" r="12" fill="#ffffff"/>
  <text x="52" y="387" font-size="14" font-weight="800" fill="#7c3aed" text-anchor="middle">3</text>
  <text x="72" y="389" font-size="18" font-weight="800" fill="#fff" text-anchor="start">Core Components</text>
  <rect x="48" y="418" width="112" height="46" rx="10" fill="#ffffff" stroke="#ea580c" stroke-width="1.5"/>
  <text x="104.0" y="438.0" font-size="13" font-weight="700" fill="#7c2d12" text-anchor="middle">Event</text>
  <text x="104.0" y="455.0" font-size="11" font-weight="400" fill="#7c2d12" text-anchor="middle">push, PR…</text>
  <path d="M162 441.0 L177 441.0" fill="none" stroke="#64748b" stroke-width="2" marker-end="url(#a)"/>
  <rect x="181" y="418" width="112" height="46" rx="10" fill="#ffffff" stroke="#2563eb" stroke-width="1.5"/>
  <text x="237.0" y="438.0" font-size="13" font-weight="700" fill="#1e3a8a" text-anchor="middle">Workflow</text>
  <text x="237.0" y="455.0" font-size="11" font-weight="400" fill="#1e3a8a" text-anchor="middle">YAML file</text>
  <path d="M295 441.0 L310 441.0" fill="none" stroke="#64748b" stroke-width="2" marker-end="url(#a)"/>
  <rect x="314" y="418" width="112" height="46" rx="10" fill="#ffffff" stroke="#7c3aed" stroke-width="1.5"/>
  <text x="370.0" y="438.0" font-size="13" font-weight="700" fill="#4c1d95" text-anchor="middle">Jobs</text>
  <text x="370.0" y="455.0" font-size="11" font-weight="400" fill="#4c1d95" text-anchor="middle">lint, test…</text>
  <path d="M370.0 466 L370.0 498" fill="none" stroke="#64748b" stroke-width="2" marker-end="url(#a)"/>
  <rect x="314" y="502" width="112" height="46" rx="10" fill="#ffffff" stroke="#0891b2" stroke-width="1.5"/>
  <text x="370.0" y="522.0" font-size="13" font-weight="700" fill="#164e63" text-anchor="middle">Runner</text>
  <text x="370.0" y="539.0" font-size="11" font-weight="400" fill="#164e63" text-anchor="middle">the machine</text>
  <path d="M312 525.0 L297 525.0" fill="none" stroke="#64748b" stroke-width="2" marker-end="url(#a)"/>
  <rect x="181" y="502" width="112" height="46" rx="10" fill="#ffffff" stroke="#16a34a" stroke-width="1.5"/>
  <text x="237.0" y="522.0" font-size="13" font-weight="700" fill="#14532d" text-anchor="middle">Steps</text>
  <text x="237.0" y="539.0" font-size="11" font-weight="400" fill="#14532d" text-anchor="middle">run in order</text>
  <path d="M179 525.0 L164 525.0" fill="none" stroke="#64748b" stroke-width="2" marker-end="url(#a)"/>
  <rect x="48" y="502" width="112" height="46" rx="10" fill="#ffffff" stroke="#ca8a04" stroke-width="1.5"/>
  <text x="104.0" y="522.0" font-size="13" font-weight="700" fill="#713f12" text-anchor="middle">Actions</text>
  <text x="104.0" y="539.0" font-size="11" font-weight="400" fill="#713f12" text-anchor="middle">reusable steps</text>
  <text x="235" y="590" font-size="13" font-weight="700" fill="#4c1d95" text-anchor="middle">Event → Workflow → Jobs → Runner → Steps</text>
  <rect x="460" y="362" width="410" height="244" rx="14" fill="#fff7ed" stroke="#ea580c" stroke-width="2"/>
  <path d="M460 402 V376 Q460 362 474 362 H856 Q870 362 870 376 V402 Z" fill="#ea580c"/>
  <circle cx="482" cy="382" r="12" fill="#ffffff"/>
  <text x="482" y="387" font-size="14" font-weight="800" fill="#ea580c" text-anchor="middle">4</text>
  <text x="502" y="389" font-size="18" font-weight="800" fill="#fff" text-anchor="start">Events — what triggers it</text>
  <rect x="476" y="416" width="184" height="50" rx="10" fill="#ffffff" stroke="#2563eb" stroke-width="1.5"/>
  <text x="568.0" y="438.0" font-size="13" font-weight="700" fill="#1e3a8a" text-anchor="middle" font-family="Consolas, Menlo, monospace" xml:space="preserve">push</text>
  <text x="568.0" y="455.0" font-size="11" font-weight="400" fill="#1e3a8a" text-anchor="middle">git push</text>
  <rect x="670" y="416" width="184" height="50" rx="10" fill="#ffffff" stroke="#16a34a" stroke-width="1.5"/>
  <text x="762.0" y="438.0" font-size="13" font-weight="700" fill="#14532d" text-anchor="middle" font-family="Consolas, Menlo, monospace" xml:space="preserve">pull_request</text>
  <text x="762.0" y="455.0" font-size="11" font-weight="400" fill="#14532d" text-anchor="middle">open/update PR</text>
  <rect x="476" y="476" width="184" height="50" rx="10" fill="#ffffff" stroke="#7c3aed" stroke-width="1.5"/>
  <text x="568.0" y="498.0" font-size="13" font-weight="700" fill="#4c1d95" text-anchor="middle" font-family="Consolas, Menlo, monospace" xml:space="preserve">schedule</text>
  <text x="568.0" y="515.0" font-size="11" font-weight="400" fill="#4c1d95" text-anchor="middle">cron timer</text>
  <rect x="670" y="476" width="184" height="50" rx="10" fill="#ffffff" stroke="#ea580c" stroke-width="1.5"/>
  <text x="762.0" y="498.0" font-size="13" font-weight="700" fill="#7c2d12" text-anchor="middle" font-family="Consolas, Menlo, monospace" xml:space="preserve">workflow_dispatch</text>
  <text x="762.0" y="515.0" font-size="11" font-weight="400" fill="#7c2d12" text-anchor="middle">manual button</text>
  <rect x="476" y="536" width="184" height="50" rx="10" fill="#ffffff" stroke="#db2777" stroke-width="1.5"/>
  <text x="568.0" y="558.0" font-size="13" font-weight="700" fill="#831843" text-anchor="middle" font-family="Consolas, Menlo, monospace" xml:space="preserve">issues</text>
  <text x="568.0" y="575.0" font-size="11" font-weight="400" fill="#831843" text-anchor="middle">issue opened</text>
  <rect x="670" y="536" width="184" height="50" rx="10" fill="#ffffff" stroke="#0d9488" stroke-width="1.5"/>
  <text x="762.0" y="558.0" font-size="13" font-weight="700" fill="#134e4a" text-anchor="middle" font-family="Consolas, Menlo, monospace" xml:space="preserve">release</text>
  <text x="762.0" y="575.0" font-size="11" font-weight="400" fill="#134e4a" text-anchor="middle">release published</text>
  <rect x="30" y="620" width="410" height="244" rx="14" fill="#f8fafc" stroke="#475569" stroke-width="2"/>
  <path d="M30 660 V634 Q30 620 44 620 H426 Q440 620 440 634 V660 Z" fill="#475569"/>
  <circle cx="52" cy="640" r="12" fill="#ffffff"/>
  <text x="52" y="645" font-size="14" font-weight="800" fill="#475569" text-anchor="middle">5</text>
  <text x="72" y="647" font-size="18" font-weight="800" fill="#fff" text-anchor="start">Workflow File</text>
  <rect x="46" y="672" width="378" height="180" rx="10" fill="#0f172a"/>
  <text x="60" y="694" font-size="12.5" font-family="Consolas, Menlo, monospace" xml:space="preserve" fill="#7dd3fc">name: CI</text>
  <text x="414" y="694" font-size="12" font-weight="400" fill="#94a3b8" text-anchor="end" font-family="Consolas, Menlo, monospace" xml:space="preserve"># workflow name</text>
  <text x="60" y="715" font-size="12.5" font-family="Consolas, Menlo, monospace" xml:space="preserve" fill="#7dd3fc">on: push</text>
  <text x="414" y="715" font-size="12" font-weight="400" fill="#94a3b8" text-anchor="end" font-family="Consolas, Menlo, monospace" xml:space="preserve"># event</text>
  <text x="60" y="736" font-size="12.5" font-family="Consolas, Menlo, monospace" xml:space="preserve" fill="#7dd3fc">jobs:</text>
  <text x="60" y="757" font-size="12.5" font-family="Consolas, Menlo, monospace" xml:space="preserve" fill="#7dd3fc">  build:</text>
  <text x="414" y="757" font-size="12" font-weight="400" fill="#94a3b8" text-anchor="end" font-family="Consolas, Menlo, monospace" xml:space="preserve"># job</text>
  <text x="60" y="778" font-size="12.5" font-family="Consolas, Menlo, monospace" xml:space="preserve" fill="#7dd3fc">    runs-on: ubuntu-latest</text>
  <text x="414" y="778" font-size="12" font-weight="400" fill="#94a3b8" text-anchor="end" font-family="Consolas, Menlo, monospace" xml:space="preserve"># runner</text>
  <text x="60" y="799" font-size="12.5" font-family="Consolas, Menlo, monospace" xml:space="preserve" fill="#7dd3fc">    steps:</text>
  <text x="60" y="820" font-size="12.5" font-family="Consolas, Menlo, monospace" xml:space="preserve" fill="#7dd3fc">      - uses: actions/checkout@v4</text>
  <text x="414" y="820" font-size="12" font-weight="400" fill="#94a3b8" text-anchor="end" font-family="Consolas, Menlo, monospace" xml:space="preserve"># action</text>
  <text x="60" y="841" font-size="12.5" font-family="Consolas, Menlo, monospace" xml:space="preserve" fill="#7dd3fc">      - run: npm ci</text>
  <text x="414" y="841" font-size="12" font-weight="400" fill="#94a3b8" text-anchor="end" font-family="Consolas, Menlo, monospace" xml:space="preserve"># command</text>
  <rect x="460" y="620" width="410" height="244" rx="14" fill="#f0fdfa" stroke="#0d9488" stroke-width="2"/>
  <path d="M460 660 V634 Q460 620 474 620 H856 Q870 620 870 634 V660 Z" fill="#0d9488"/>
  <circle cx="482" cy="640" r="12" fill="#ffffff"/>
  <text x="482" y="645" font-size="14" font-weight="800" fill="#0d9488" text-anchor="middle">6</text>
  <text x="502" y="647" font-size="18" font-weight="800" fill="#fff" text-anchor="start">Runners — where jobs run</text>
  <rect x="476" y="672" width="184" height="180" rx="10" fill="#ffffff" stroke="#2563eb" stroke-width="1.5"/>
  <rect x="476" y="672" width="184" height="30" rx="10" fill="#2563eb"/>
  <text x="568" y="692" font-size="14" font-weight="800" fill="#fff" text-anchor="middle">GitHub-hosted</text>
  <text x="486" y="728" font-size="12.5" font-weight="400" fill="#1e3a8a" text-anchor="start">• Ubuntu / Windows / macOS</text>
  <text x="486" y="754" font-size="12.5" font-weight="400" fill="#1e3a8a" text-anchor="start">• Fresh VM every job</text>
  <text x="486" y="780" font-size="12.5" font-weight="400" fill="#1e3a8a" text-anchor="start">• Tools pre-installed</text>
  <rect x="486" y="810" width="164" height="28" rx="6" fill="#1e293b"/>
  <text x="568" y="829" font-size="11.5" font-weight="400" fill="#86efac" text-anchor="middle" font-family="Consolas, Menlo, monospace" xml:space="preserve">runs-on: ubuntu-latest</text>
  <rect x="670" y="672" width="184" height="180" rx="10" fill="#ffffff" stroke="#16a34a" stroke-width="1.5"/>
  <rect x="670" y="672" width="184" height="30" rx="10" fill="#16a34a"/>
  <text x="762" y="692" font-size="14" font-weight="800" fill="#fff" text-anchor="middle">Self-hosted</text>
  <text x="680" y="728" font-size="12.5" font-weight="400" fill="#14532d" text-anchor="start">• Your server / EC2</text>
  <text x="680" y="754" font-size="12.5" font-weight="400" fill="#14532d" text-anchor="start">• Keeps files between jobs</text>
  <text x="680" y="780" font-size="12.5" font-weight="400" fill="#14532d" text-anchor="start">• Install tools yourself</text>
  <rect x="680" y="810" width="164" height="28" rx="6" fill="#1e293b"/>
  <text x="762" y="829" font-size="11.5" font-weight="400" fill="#86efac" text-anchor="middle" font-family="Consolas, Menlo, monospace" xml:space="preserve">runs-on: self-hosted</text>
  <rect x="30" y="878" width="840" height="46" rx="14" fill="#1e3a8a"/>
  <text x="450.0" y="907.5" font-size="18" font-weight="700" text-anchor="middle"><tspan fill="#fdba74">Event</tspan><tspan fill="#ffffff"> triggers a </tspan><tspan fill="#c4b5fd">workflow</tspan><tspan fill="#ffffff"> → </tspan><tspan fill="#fde047">jobs</tspan><tspan fill="#ffffff"> run on </tspan><tspan fill="#67e8f9">runners</tspan><tspan fill="#ffffff"> → </tspan><tspan fill="#86efac">steps</tspan><tspan fill="#ffffff"> run in order</tspan></text>
</svg>
